<svg width="24" height="24" viewBox="0 0 24 24" fill="none" xmlns="http://www.w3.org/2000/svg">
<path d="M8.854 21.57C10.8949 22.2534 13.1029 22.2537 15.144 21.571C15.0696 21.595 14.9906 21.6009 14.9134 21.5883C14.8363 21.5756 14.7632 21.5449 14.7003 21.4985C14.6374 21.4521 14.5864 21.3914 14.5516 21.3214C14.5168 21.2514 14.4991 21.1742 14.5 21.096C14.5 20.758 14.513 19.683 14.513 18.346C14.5398 18.0073 14.4934 17.6667 14.3769 17.3475C14.2605 17.0283 14.0767 16.7379 13.838 16.496C16.063 16.246 18.4 15.396 18.4 11.558C18.4162 10.5639 18.0491 9.60176 17.375 8.87101C17.6807 8.00722 17.6449 7.0593 17.275 6.22101C17.275 6.22101 16.437 5.94601 14.525 7.24601C12.8887 6.79596 11.1613 6.79596 9.525 7.24601C7.612 5.95801 6.775 6.22001 6.775 6.22001C6.40498 7.05827 6.3692 8.00624 6.675 8.87001C6.00281 9.60197 5.63609 10.5633 5.65 11.557C5.65 15.382 7.975 16.245 10.2 16.495C9.83243 16.8487 9.60572 17.3238 9.562 17.832C9.31711 17.9693 9.04755 18.0571 8.76874 18.0902C8.48993 18.1233 8.20732 18.1012 7.93708 18.025C7.66683 17.9489 7.41424 17.8202 7.19374 17.6464C6.97324 17.4726 6.78915 17.257 6.652 17.012L6.65 17.007C6.49493 16.7251 6.27417 16.4847 6.00643 16.3063C5.73869 16.1279 5.43188 16.0166 5.112 15.982C4.275 15.995 4.775 16.457 5.125 16.645C5.576 17.025 5.928 17.51 6.15 18.057C6.35 18.62 7 19.695 9.512 19.232C9.512 20.07 9.525 20.857 9.525 21.095C9.525 21.354 9.339 21.646 8.854 21.57Z" fill="white"/>
<path d="M12 2.08299C6.477 2.08299 2 6.55999 2 12.083C2 16.506 4.875 20.252 8.855 21.571C9.34 21.646 9.525 21.355 9.525 21.096C9.525 20.858 9.513 20.071 9.513 19.233C7 19.696 6.35 18.621 6.15 18.058C5.92797 17.5111 5.57618 17.0265 5.125 16.646C4.775 16.458 4.275 15.996 5.112 15.983C5.4319 16.0175 5.73876 16.1287 6.00651 16.3072C6.27425 16.4856 6.495 16.726 6.65 17.008L6.653 17.014C6.79015 17.259 6.97424 17.4746 7.19474 17.6484C7.41524 17.8222 7.66783 17.9508 7.93808 18.027C8.20833 18.1032 8.49093 18.1253 8.76975 18.0922C9.04856 18.0591 9.31811 17.9713 9.563 17.834C9.606 17.324 9.833 16.85 10.2 16.496C7.975 16.246 5.65 15.383 5.65 11.558C5.63609 10.5643 6.00282 9.60295 6.675 8.87099C6.36931 8.00721 6.40508 7.05928 6.775 6.22099C6.775 6.22099 7.612 5.95799 9.525 7.24599C11.1613 6.79594 12.8887 6.79594 14.525 7.24599C16.437 5.94599 17.275 6.22099 17.275 6.22099C17.645 7.05899 17.681 8.00699 17.375 8.87099C18.0491 9.60175 18.4162 10.5639 18.4 11.558C18.4 15.396 16.062 16.246 13.838 16.496C14.32 16.986 14.567 17.66 14.513 18.346C14.513 19.683 14.5 20.758 14.5 21.096C14.499 21.1741 14.5166 21.2514 14.5513 21.3214C14.586 21.3914 14.6368 21.4521 14.6996 21.4986C14.7624 21.5451 14.8354 21.576 14.9125 21.5888C14.9896 21.6015 15.0686 21.5958 15.143 21.572C19.124 20.253 22 16.507 22 12.083C22 6.55999 17.523 2.08299 12 2.08299Z" fill="#161616"/>
</svg>
